<?xml version="1.0" standalone="no"?><!DOCTYPE svg PUBLIC "-//W3C//DTD SVG 1.1//EN" "http://www.w3.org/Graphics/SVG/1.1/DTD/svg11.dtd"><svg t="1539916712102" class="icon" style="" viewBox="0 0 1024 1024" version="1.1" xmlns="http://www.w3.org/2000/svg" p-id="4169" xmlns:xlink="http://www.w3.org/1999/xlink" width="32" height="32"><defs><style type="text/css"></style></defs><path d="M467.848616 89.379279L99.392995 713.950498c-33.147857 56.188073 26.341998 120.207942 93.497474 100.621229L482.833065 730.004233c16.227133-4.732312 33.725849-4.573364 49.844608 0.455169l295.809218 92.290916c65.103604 20.316428 125.59772-39.426298 97.247199-96.047865L608.748681 93.504699c-26.833291-53.608783-110.266475-56.0508-140.900065-4.12542z" fill="#231815" p-id="4170"></path><path d="M526.998899 891.596421l-373.534727 115.237209c-26.255299 8.099117-54.685293-5.852172-63.174555-31.002061l-0.007225-0.021674c-8.518161-25.229362 6.061694-52.517822 32.396467-60.638614l373.534727-115.237208c26.255299-8.099117 54.685293 5.852172 63.174555 31.00206l0.007225 0.021675c8.518161 25.222138-6.061694 52.510597-32.396467 60.638613z" fill="#231815" p-id="4171"></path><path d="M866.453758 1013.437191l-368.433946-121.876894c-26.15415-8.648209-40.134338-36.225665-31.067084-61.28163l0.007225-0.021675c9.038354-24.976491 37.76457-38.349787 63.839245-29.723252l368.433946 121.876894c26.15415 8.648209 40.134338 36.225665 31.067085 61.28163l-0.007225 0.021675c-9.038354 24.969266-37.76457 38.342562-63.839246 29.723252z" fill="#231815" p-id="4172"></path></svg>