<?xml version="1.0" standalone="no"?><!DOCTYPE svg PUBLIC "-//W3C//DTD SVG 1.1//EN" "http://www.w3.org/Graphics/SVG/1.1/DTD/svg11.dtd"><svg t="1539939130139" class="icon" style="" viewBox="0 0 1024 1024" version="1.1" xmlns="http://www.w3.org/2000/svg" p-id="6369" xmlns:xlink="http://www.w3.org/1999/xlink" width="32" height="32"><defs><style type="text/css"></style></defs><path d="M807.713 180.008 220.896 180.008c-30.81 0-56.018 23.228-56.018 54.652l0 548.29c0 31.356 25.208 57.042 56.018 57.042l591.531 0c30.81 0 53.696-25.686 53.696-57.042L866.123 234.66C866.122 203.236 838.524 180.008 807.713 180.008L807.713 180.008zM390.792 261.098c47.479 0 85.94 39.144 85.94 87.374s-38.461 87.305-85.94 87.305c-47.477 0-86.007-39.074-86.007-87.305S343.315 261.098 390.792 261.098L390.792 261.098zM243.781 770.79c-6.422 0-12.912-2.255-18.172-6.901-11.818-10.246-13.185-28.214-3.074-40.236l128.841-197.428c9.564-11.409 26.163-13.321 37.982-4.373l113.744 85.872 203.713-235.275c9.633-12.365 60.799-70.295 90.79-4.576 0-0.069 0.068 86.962 0.068 175.84 0.069 92.703 0.069 227.006 0.069 227.006C797.124 770.516 244.054 770.79 243.781 770.79L243.781 770.79z" p-id="6370"></path></svg>