<?xml version="1.0" standalone="no"?><!DOCTYPE svg PUBLIC "-//W3C//DTD SVG 1.1//EN" "http://www.w3.org/Graphics/SVG/1.1/DTD/svg11.dtd"><svg t="1539937446395" class="icon" style="" viewBox="0 0 1024 1024" version="1.1" xmlns="http://www.w3.org/2000/svg" p-id="4868" xmlns:xlink="http://www.w3.org/1999/xlink" width="32" height="32"><defs><style type="text/css"></style></defs><path d="M740.667077 512c-33.240615 0-62.345846-29.144615-62.345846-62.345846 0-33.28 29.105231-62.385231 62.345846-62.385231s62.345846 29.144615 62.345846 62.385231c0 33.161846-29.105231 62.345846-62.345846 62.345846zM615.975385 345.678769c-33.28 0-62.385231-29.105231-62.385231-62.345846s29.144615-62.345846 62.385231-62.345846c33.240615 0 62.345846 29.105231 62.345846 62.345846s-29.144615 62.345846-62.345846 62.345846z m-207.872 0c-33.319385 0-62.345846-29.105231-62.345847-62.345846s29.026462-62.345846 62.345847-62.345846c33.240615 0 62.345846 29.105231 62.345846 62.345846s-29.105231 62.345846-62.345846 62.345846zM283.372308 512c-33.28 0-62.345846-29.144615-62.345846-62.345846 0-33.28 29.065846-62.385231 62.345846-62.385231s62.385231 29.144615 62.38523 62.385231c0 33.161846-29.144615 62.345846-62.38523 62.345846zM512 137.846154A372.617846 372.617846 0 0 0 137.846154 512c0 207.832615 166.321231 374.153846 374.153846 374.153846 33.319385 0 62.345846-29.144615 62.345846-62.345846 0-16.699077-4.135385-29.184-16.541538-41.590154-8.428308-12.484923-16.699077-24.969846-16.699077-41.550769 0-33.319385 29.144615-62.345846 62.345846-62.345846h74.830769c116.460308 0 207.872-91.490462 207.872-207.911385C886.153846 287.468308 719.911385 137.846154 512 137.846154z" p-id="4869"></path></svg>