<?xml version="1.0" standalone="no"?><!DOCTYPE svg PUBLIC "-//W3C//DTD SVG 1.1//EN" "http://www.w3.org/Graphics/SVG/1.1/DTD/svg11.dtd"><svg t="1539913003363" class="icon" style="" viewBox="0 0 1024 1024" version="1.1" xmlns="http://www.w3.org/2000/svg" p-id="1137" xmlns:xlink="http://www.w3.org/1999/xlink" width="32" height="32"><defs><style type="text/css"></style></defs><path d="M261.4 551.7c-6-6.6-13.6-10.8-22.7-12.4-6.8-1.3-20.3-1.9-40.7-1.9h-27.3v79.5h31c22.3 0 37.2-1.5 44.7-4.4 7.5-2.9 13.4-7.5 17.7-13.8 4.3-6.2 6.4-13.5 6.4-21.8-0.2-10.1-3.2-18.5-9.1-25.2z" fill="#585850" p-id="1138"></path><path d="M910.1 441.5h-44.4V269L660.9 64.2H258.3c-55.2 0-100 44.8-100 100v277.3h-44.4c-27.6 0-50 22.4-50 50v277.3c0 27.6 22.4 50 50 50h44.4v41.1c0 55.2 44.8 100 100 100h507.4c55.2 0 100-44.8 100-100v-41.1h44.4c27.6 0 50-22.4 50-50V491.5c0-27.7-22.4-50-50-50zM218.3 164.2c0-22.1 17.9-40 40-40h374.1c-1.6 6.4-2.5 13.1-2.5 20V220c0 44.2 35.8 80 80 80h75.8c6.9 0 13.6-0.9 20-2.5v144H218.3V164.2zM597.9 490v280.2h-56.8L428.2 587.5v182.7h-52.6V490h55l114.7 187.1V490h52.6zM170.6 664.5v105.7H114V490h90.8c34.4 0 56.8 1.4 67.3 4.2 16.1 4.2 29.5 13.3 40.3 27.4 10.8 14.1 16.2 32.3 16.2 54.6 0 17.2-3.1 31.7-9.4 43.4-6.2 11.7-14.2 20.9-23.8 27.6-9.6 6.7-19.4 11.1-29.3 13.3-13.5 2.7-33.1 4-58.7 4h-36.8z m635.1 195.3c0 22.1-17.9 40-40 40H258.3c-22.1 0-40-17.9-40-40v-41.1h587.4v41.1zM910 731.6c-11.8 11.5-29 21.6-51.5 30.3S813.2 775 790.2 775c-29.3 0-54.9-6.1-76.6-18.4-21.8-12.3-38.2-29.9-49.1-52.7-11-22.9-16.4-47.7-16.4-74.6 0-29.2 6.1-55.1 18.3-77.8 12.2-22.7 30.1-40.1 53.7-52.2 18-9.3 40.3-14 67.1-14 34.8 0 62 7.3 81.5 21.9 19.6 14.6 32.1 34.8 37.7 60.5l-56.2 10.5c-4-13.8-11.4-24.6-22.3-32.6s-24.5-11.9-40.8-11.9c-24.7 0-44.4 7.8-59 23.5-14.6 15.7-21.9 38.9-21.9 69.8 0 33.3 7.4 58.2 22.2 74.8 14.8 16.6 34.1 24.9 58.1 24.9 11.8 0 23.7-2.3 35.6-7 11.9-4.6 22.1-10.3 30.7-16.9v-35.5H788V620h122v111.6z" fill="#585850" p-id="1139"></path></svg>