<?xml version="1.0" standalone="no"?><!DOCTYPE svg PUBLIC "-//W3C//DTD SVG 1.1//EN" "http://www.w3.org/Graphics/SVG/1.1/DTD/svg11.dtd"><svg t="1539915686808" class="icon" style="" viewBox="0 0 1024 1024" version="1.1" xmlns="http://www.w3.org/2000/svg" p-id="2933" xmlns:xlink="http://www.w3.org/1999/xlink" width="32" height="32"><defs><style type="text/css"></style></defs><path d="M187.392 898.304c-10.752-7.68-20.992-14.848-31.744-22.528 2.048-127.48288 3.584-254.976 5.632-382.464 105.984-42.496 198.656-120.832 278.016-232.96l78.848 55.808 2.04288 1.536 2.048 2.048 2.048 1.536 2.04288 1.536 2.048 1.536 2.04288 1.536 2.048 1.536 2.048 1.536 2.04288 1.536 2.048 1.536 2.04288 1.536 2.048 1.536 2.048 1.536 2.04288 1.536 2.04288 1.536 2.048 1.536 2.048 1.536 2.048 1.536 2.04288 1.536 2.04288 1.536 2.048 1.536 2.048 1.536 2.048 1.536 2.04288 1.536 2.04288 1.536 2.048 1.536 38.912 27.648 2.048 1.536 2.048 1.536 2.048 1.536 2.04288 1.536 2.04288 1.536 2.048 1.536 2.048 1.536 2.048 1.536 2.04288 1.536 2.04288 1.536 2.048 1.536 2.048 1.536 2.048 1.536 2.04288 1.536 2.04288 1.536 2.048 1.536 2.048 1.536 2.048 1.536 2.04288 1.536 2.04288 1.536 2.048 1.536 2.048 1.536 2.048 1.536h0.512l84.48 59.904c-79.36 112.12288-121.856 225.28-126.976 339.96288-119.808 44.03712-239.104 88.064-358.4 132.608-10.752-7.68-20.992-14.848-31.744-22.528l152.576-215.552c38.4 14.336 82.944 1.536 108.032-33.28 29.696-41.984 19.456-99.84-22.016-129.024-41.984-29.696-99.84-19.456-129.024 22.016-24.576 34.82112-22.016 81.408 4.608 112.64L187.392 898.304zM813.056 470.272l77.824-110.08-407.552-288.256-77.312 110.08z" fill="#231815" p-id="2934"></path></svg>