<?xml version="1.0" encoding="UTF-8"?>
<svg width="108px" height="36px" viewBox="0 0 108 36" version="1.1" xmlns="http://www.w3.org/2000/svg" xmlns:xlink="http://www.w3.org/1999/xlink">
    <!-- Generator: Sketch 52 (66869) - http://www.bohemiancoding.com/sketch -->
    <title>分组 2</title>
    <desc>Created with Sketch.</desc>
    <g id="Page-1" stroke="none" stroke-width="1" fill="none" fill-rule="evenodd">
        <g id="Desktop-HD" transform="translate(-120.000000, -29.000000)">
            <g id="分组-2" transform="translate(120.000000, 25.000000)">
                <g id="导航" transform="translate(0.000000, 4.000000)" fill="#231815">
                    <g id="分组">
                        <path d="M13.4893388,1.39740437 L0.438949233,24.1382632 C-0.735120425,26.1840925 1.37195986,28.5150805 3.750549,27.8019107 L14.0200767,24.722777 C14.5948264,24.5504719 15.2146151,24.5562593 15.7855289,24.7393499 L26.2628253,28.0996954 C28.5687379,28.8394229 30.7113967,26.6641694 29.7072361,24.6025562 L18.4799044,1.54758508 C17.5294923,-0.404330964 14.574379,-0.493245078 13.4893495,1.39737703 L13.4893388,1.39740437 Z" id="路径"></path>
                        <path d="M15.5843802,30.6064082 L2.35409681,34.8022296 C1.42415702,35.0971215 0.417191263,34.5891499 0.116507674,33.6734318 L0.116251771,33.6726426 C-0.185454014,32.7540309 0.330951535,31.7604503 1.2637075,31.464769 L14.4939909,27.2689476 C15.4239306,26.9740557 16.4308964,27.4820273 16.73158,28.3977454 L16.7318359,28.3985346 C17.0335417,29.3168805 16.5171361,30.3104648 15.5843802,30.6064083 Z" id="路径"></path>
                        <path d="M27.6075797,35.0427929 L14.5579693,30.6052067 C13.6316104,30.2903222 13.1364475,29.2862157 13.4575998,28.3739212 L13.4578557,28.373132 C13.7779861,27.4637285 14.7954448,26.9768017 15.7189844,27.2908957 L28.7685947,31.728482 C29.6949501,32.0433664 30.1901166,33.047473 29.8689643,33.9597675 L29.8687084,33.9605567 C29.5485779,34.869698 28.5311192,35.3566248 27.6075797,35.0427929 Z" id="路径"></path>
                    </g>
                </g>
                <text id="鱼尾导航" font-family="SourceHanSansCN-Medium, Source Han Sans CN" font-size="18" font-weight="400" fill="#444343">
                    <tspan x="34" y="21">鱼尾导航</tspan>
                </text>
                <text id="123.yuwei.me" font-family="SourceHanSansCN-ExtraLight, Source Han Sans CN" font-size="12" font-weight="300" fill="#444343">
                    <tspan x="36" y="37">123.yuwei.me</tspan>
                </text>
            </g>
        </g>
    </g>
</svg>