<?xml version="1.0" standalone="no"?><!DOCTYPE svg PUBLIC "-//W3C//DTD SVG 1.1//EN" "http://www.w3.org/Graphics/SVG/1.1/DTD/svg11.dtd"><svg t="1541240956487" class="icon" style="" viewBox="0 0 1024 1024" version="1.1" xmlns="http://www.w3.org/2000/svg" p-id="5224" xmlns:xlink="http://www.w3.org/1999/xlink" width="32" height="32"><defs><style type="text/css"></style></defs><path d="M789.238 260.89c-85.316-37.848-178.532-56.944-277.298-56.85-98.746-0.094-198.54 20.524-277.282 55.958-14.792 6.624-28.008 17.914-18.592 38.958S511.882 960 511.882 960l295.242-659.748C812.904 286.5 808.636 269.496 789.238 260.89zM383.966 384.03c-35.34 0-63.99-28.646-63.99-63.986 0-35.338 28.65-63.984 63.99-63.984 35.342 0 63.992 28.646 63.992 63.984C447.958 355.382 419.308 384.03 383.966 384.03zM511.95 677.962c-35.342 0-63.99-28.646-63.99-63.986s28.648-63.984 63.99-63.984c35.34 0 63.99 28.644 63.99 63.984S547.29 677.962 511.95 677.962zM639.93 448.014c-35.34 0-63.99-28.644-63.99-63.984s28.65-63.986 63.99-63.986c35.342 0 63.992 28.646 63.992 63.986S675.272 448.014 639.93 448.014z" p-id="5225"></path><path d="M843.58 132c-95.616-41.206-213.734-67.954-331.622-68-117.862 0-233.888 24.272-331.64 66.892C171.66 134.668 160 142.032 160 158.454c0 5.046 1.814 9.844 1.814 9.844l15.96 38.388c5.062 9.73 15.888 16.36 27.596 16.36 3.29 0 7.872-0.662 13.3-2.952 89.8-37.858 188.942-59.176 293.288-59.128 104.35-0.046 211.26 23.28 293.268 59.122 6.592 2.88 10.346 2.944 13.326 2.944 12.018 0 22.316-6.548 27.454-16.106l16.08-38.684c1.154-3.116 1.914-6.574 1.914-9.536C864 144 855.228 137.02 843.58 132z" p-id="5226"></path></svg>