<?xml version="1.0" standalone="no"?><!DOCTYPE svg PUBLIC "-//W3C//DTD SVG 1.1//EN" "http://www.w3.org/Graphics/SVG/1.1/DTD/svg11.dtd"><svg t="1540025550581" class="icon" style="" viewBox="0 0 1024 1024" version="1.1" xmlns="http://www.w3.org/2000/svg" p-id="664" xmlns:xlink="http://www.w3.org/1999/xlink" width="32" height="32"><defs><style type="text/css"></style></defs><path d="M390.5 298.5c0-76.8-62.6-138.8-139.3-138.8-76.9 0-139.2 62.3-139.2 138.8 0 37.3 14.8 71.1 38.9 96.2-6.7 28-10.1 56.6-10 85.2 0 132.2 69.8 247.8 174.4 312.7l28-114.1c-56.9-47.6-93-119-93-198.6 0-14.4 1.3-28.8 3.5-42.6 75.3-1.2 136.7-62.6 136.7-138.8z m119.4-77.7c48.1 0 93.3 13.2 132 35.7-6.2 16.2-9.3 33.1-9.4 50.2 0 76.7 62.5 138.8 139.2 138.8 76.7 0 139.2-62.4 139.2-138.8s-62.2-138.4-139.2-138.4c-17.9 0-35.2 3.4-51.2 9.7-59.7-41.4-132.4-65.8-210.9-65.8-51.8 0-102.9 10.8-149.3 31.4l63.8 92.1c27.3-9.9 56.4-14.9 85.8-14.9z m259.6 271c-4.1 94.6-59.1 175.7-138.3 217.4-22.9-45.1-70-75.8-124.1-75.8-77 0-139.2 62.3-139.2 138.8 0 76.4 62.5 138.8 139.2 138.8 57.8 0 107.1-35.1 128.5-84.9 142-51.3 243.6-187 243.6-346.2 0-8.1-0.4-16.3-1-24.4l-108.7 36.3z m0 0" p-id="665"></path></svg>