<?xml version="1.0" standalone="no"?><!DOCTYPE svg PUBLIC "-//W3C//DTD SVG 1.1//EN" "http://www.w3.org/Graphics/SVG/1.1/DTD/svg11.dtd"><svg t="1555304833496" class="icon" style="" viewBox="0 0 1024 1024" version="1.1" xmlns="http://www.w3.org/2000/svg" p-id="1998" xmlns:xlink="http://www.w3.org/1999/xlink" width="200" height="200"><defs><style type="text/css"></style></defs><path d="M1006.08 597.034667c-0.298667-5.589333-8.917333-33.28-20.906667-62.122667-12.288-29.696-33.109333-72.661333-61.866666-108.586667A410.965333 410.965333 0 0 0 785.066667 314.453333c-66.304-33.28-143.914667-50.133333-230.485334-50.133333-86.528 0-164.096 16.896-230.4 50.218667a413.653333 413.653333 0 0 0-138.24 111.786666c-28.757333 36.010667-49.493333 79.018667-61.781333 108.714667-11.989333 28.8-20.48 56.490667-20.778667 62.08v0.426667c0.298667 5.546667 8.874667 33.28 20.906667 62.165333 12.373333 29.738667 33.066667 72.704 61.781333 108.501333A410.965333 410.965333 0 0 0 324.266667 880.128c66.688 33.408 144.213333 50.304 230.4 50.304 86.314667 0 163.84-16.896 230.4-50.304a413.354667 413.354667 0 0 0 138.24-111.786667c28.757333-35.925333 49.578667-78.933333 61.866666-108.629333 11.989333-28.8 20.608-56.490667 20.906667-62.08v-0.213333-0.384z m-74.24 0.213333c-5.674667 17.365333-27.733333 80.213333-64.384 125.781333l-0.469333 0.512a341.333333 341.333333 0 0 1-114.346667 92.586667c-56.490667 28.288-123.306667 42.666667-198.4 42.666667-75.178667 0-141.866667-14.378667-198.4-42.666667a339.754667 339.754667 0 0 1-114.261333-92.714667c-36.821333-45.781333-59.008-108.8-64.725334-126.293333 5.717333-17.408 27.904-80.298667 64.725334-126.293333a341.76 341.76 0 0 1 114.389333-92.586667c56.618667-28.288 123.392-42.624 198.613333-42.624 75.52 0 142.165333 14.336 198.272 42.624a339.754667 339.754667 0 0 1 114.346667 92.672c36.778667 46.037333 58.965333 108.928 64.682667 126.293333z m-366.506667-174.08c-135.936 0-246.442667 77.781333-246.442666 173.226667 0 95.573333 110.634667 173.354667 246.442666 173.354666s246.442667-77.824 246.442667-173.312c0-95.488-110.506667-173.312-246.442667-173.312z m145.066667 173.226667c0 27.221333-15.104 52.821333-42.538667 72.106666-27.434667 19.328-63.829333 29.952-102.528 29.952s-75.093333-10.624-102.528-29.909333c-27.434667-19.328-42.538667-44.928-42.538666-72.106667 0-27.221333 15.104-52.821333 42.538666-72.106666 27.434667-19.285333 63.829333-29.866667 102.528-29.866667s75.093333 10.581333 102.528 29.866667c27.434667 19.285333 42.538667 44.885333 42.538667 72.106666z" fill="#000000" p-id="1999"></path><path d="M262.656 141.866667l26.410667-15.232a64 64 0 0 1 87.424 23.424l417.536 723.2a64 64 0 0 1-23.466667 87.381333l-26.368 15.232a64 64 0 0 1-87.424-23.424L239.232 229.290667a64 64 0 0 1 23.466667-87.466667z" fill="#FAFAFA" p-id="2000"></path><path d="M283.989333 178.816l26.410667-15.232a21.333333 21.333333 0 0 1 29.141333 7.808l417.536 723.2a21.333333 21.333333 0 0 1-7.808 29.098667l-26.410666 15.232a21.333333 21.333333 0 0 1-29.141334-7.808L276.181333 207.957333a21.333333 21.333333 0 0 1 7.808-29.141333z" fill="#000000" p-id="2001"></path></svg>